<?xml version="1.0" encoding="UTF-8" standalone="no"?>
<!-- Created with Inkscape (http://www.inkscape.org/) -->

<svg
   xmlns:dc="http://purl.org/dc/elements/1.1/"
   xmlns:cc="http://creativecommons.org/ns#"
   xmlns:rdf="http://www.w3.org/1999/02/22-rdf-syntax-ns#"
   xmlns:svg="http://www.w3.org/2000/svg"
   xmlns="http://www.w3.org/2000/svg"
   xmlns:sodipodi="http://sodipodi.sourceforge.net/DTD/sodipodi-0.dtd"
   xmlns:inkscape="http://www.inkscape.org/namespaces/inkscape"
   version="1.1"
   width="937.49518"
   height="578.56732"
   viewBox="-926.01887 -2 941.55346 582.68121"
   id="svg2"
   inkscape:version="0.91 r13725"
   sodipodi:docname="leaf.svg">
  <sodipodi:namedview
     pagecolor="#ffffff"
     bordercolor="#666666"
     borderopacity="1"
     objecttolerance="10"
     gridtolerance="10"
     guidetolerance="10"
     inkscape:pageopacity="0"
     inkscape:pageshadow="2"
     inkscape:window-width="1920"
     inkscape:window-height="1137"
     id="namedview65"
     showgrid="false"
     inkscape:zoom="0.30720158"
     inkscape:cx="1023.7578"
     inkscape:cy="289.28366"
     inkscape:window-x="-8"
     inkscape:window-y="-8"
     inkscape:window-maximized="1"
     inkscape:current-layer="svg2" />
  <metadata
     id="metadata112">
    <rdf:RDF>
      <cc:Work
         rdf:about="">
        <dc:format>image/svg+xml</dc:format>
        <dc:type
           rdf:resource="http://purl.org/dc/dcmitype/StillImage" />
        <dc:title />
      </cc:Work>
    </rdf:RDF>
  </metadata>
  <defs
     id="defs110">
    <filter
       x="-0.25"
       y="-0.25"
       width="1.5"
       height="1.5"
       color-interpolation-filters="sRGB"
       id="filter3940">
      <feGaussianBlur
         result="blur"
         stdDeviation="3"
         in="SourceAlpha"
         id="feGaussianBlur3942" />
      <feColorMatrix
         values="1 0 0 0 0 0 1 0 0 0 0 0 1 0 0 0 0 0 0.5 0 "
         type="matrix"
         result="bluralpha"
         id="feColorMatrix3944" />
      <feOffset
         result="offsetBlur"
         dy="8"
         dx="-4"
         in="bluralpha"
         id="feOffset3946" />
      <feMerge
         id="feMerge3948">
        <feMergeNode
           in="offsetBlur"
           id="feMergeNode3950" />
        <feMergeNode
           in="SourceGraphic"
           id="feMergeNode3952" />
      </feMerge>
    </filter>
  </defs>
  <g
     id="g3802"
     style="filter:url(#filter3940)"
     transform="matrix(-1,0,0,-1,-910.44679,578.68121)">
    <polygon
       points="-123.951,490.976 -126.549,492.476 0,562.539 "
       transform="translate(6.7861008,8.0711048)"
       id="polygon4"
       style="fill:#23952b;fill-opacity:1;stroke:#000000;stroke-width:4.02844191;stroke-miterlimit:4;stroke-dasharray:none;stroke-opacity:1" />
    <polygon
       points="-386.911,518.339 -123.951,490.976 -123.951,490.976 -231.734,428.747 "
       transform="translate(6.7861008,8.0711048)"
       id="polygon6"
       style="fill:#23952b;fill-opacity:1;stroke:#000000;stroke-width:4.02844191;stroke-miterlimit:4;stroke-dasharray:none;stroke-opacity:1" />
    <polygon
       points="-548.264,503.272 -384.313,516.839 -231.734,428.747 -325.458,374.635 "
       transform="translate(6.7861008,8.0711048)"
       id="polygon8"
       style="fill:#23952b;fill-opacity:1;stroke:#000000;stroke-width:4.02844191;stroke-miterlimit:4;stroke-dasharray:none;stroke-opacity:1" />
    <polygon
       points="-648.904,467.269 -545.172,501.487 -325.458,374.635 -406.958,327.581 "
       transform="translate(6.7861008,8.0711048)"
       id="polygon10"
       style="fill:#23952b;fill-opacity:1;stroke:#000000;stroke-width:4.02844191;stroke-miterlimit:4;stroke-dasharray:none;stroke-opacity:1" />
    <polygon
       points="-712.817,422.336 -645.225,465.145 -406.958,327.581 -477.827,286.665 "
       transform="translate(6.7861008,8.0711048)"
       id="polygon12"
       style="fill:#23952b;fill-opacity:1;stroke:#000000;stroke-width:4.02844191;stroke-miterlimit:4;stroke-dasharray:none;stroke-opacity:1" />
    <polygon
       points="-754.75,375.388 -708.438,419.809 -477.827,286.665 -539.452,251.086 "
       transform="translate(6.7861008,8.0711048)"
       id="polygon14"
       style="fill:#23952b;fill-opacity:1;stroke:#000000;stroke-width:4.02844191;stroke-miterlimit:4;stroke-dasharray:none;stroke-opacity:1" />
    <polygon
       points="-783.693,330.221 -749.54,372.38 -539.452,251.086 -593.04,220.147 "
       transform="translate(6.7861008,8.0711048)"
       id="polygon16"
       style="fill:#23952b;fill-opacity:1;stroke:#000000;stroke-width:4.02844191;stroke-miterlimit:4;stroke-dasharray:none;stroke-opacity:1" />
    <polygon
       points="-805.063,288.752 -777.493,326.641 -593.04,220.147 -639.637,193.244 "
       transform="translate(6.7861008,8.0711048)"
       id="polygon18"
       style="fill:#23952b;fill-opacity:1;stroke:#000000;stroke-width:4.02844191;stroke-miterlimit:4;stroke-dasharray:none;stroke-opacity:1" />
    <polygon
       points="-822.085,251.792 -797.685,284.493 -639.637,193.244 -680.157,169.85 "
       transform="translate(6.7861008,8.0711048)"
       id="polygon20"
       style="fill:#23952b;fill-opacity:1;stroke:#000000;stroke-width:4.02844191;stroke-miterlimit:4;stroke-dasharray:none;stroke-opacity:1" />
    <polygon
       points="-836.653,219.518 -813.306,246.723 -680.157,169.85 -715.392,149.507 "
       transform="translate(6.7861008,8.0711048)"
       id="polygon22"
       style="fill:#23952b;fill-opacity:1;stroke:#000000;stroke-width:4.02844191;stroke-miterlimit:4;stroke-dasharray:none;stroke-opacity:1" />
    <polygon
       points="-849.863,191.766 -826.205,213.485 -715.392,149.507 -746.03,131.818 "
       transform="translate(6.7861008,8.0711048)"
       id="polygon24"
       style="fill:#23952b;fill-opacity:1;stroke:#000000;stroke-width:4.02844191;stroke-miterlimit:4;stroke-dasharray:none;stroke-opacity:1" />
    <polygon
       points="-862.347,168.209 -837.43,184.587 -746.03,131.818 -772.673,116.436 "
       transform="translate(6.7861008,8.0711048)"
       id="polygon26"
       style="fill:#23952b;fill-opacity:1;stroke:#000000;stroke-width:4.02844191;stroke-miterlimit:4;stroke-dasharray:none;stroke-opacity:1" />
    <polygon
       points="-874.475,148.46 -847.551,159.667 -772.673,116.436 -795.84,103.06 "
       transform="translate(6.7861008,8.0711048)"
       id="polygon28"
       style="fill:#23952b;fill-opacity:1;stroke:#000000;stroke-width:4.02844191;stroke-miterlimit:4;stroke-dasharray:none;stroke-opacity:1" />
    <polygon
       points="-881.514,129.262 -856.869,138.295 -795.84,103.06 -815.985,91.429 "
       transform="translate(6.7861008,8.0711048)"
       id="polygon30"
       style="fill:#23952b;fill-opacity:1;stroke:#000000;stroke-width:4.02844191;stroke-miterlimit:4;stroke-dasharray:none;stroke-opacity:1" />
    <polygon
       points="-885.736,111.472 -863.908,119.097 -815.985,91.429 -833.503,81.315 "
       transform="translate(6.7861008,8.0711048)"
       id="polygon32"
       style="fill:#23952b;fill-opacity:1;stroke:#000000;stroke-width:4.02844191;stroke-miterlimit:4;stroke-dasharray:none;stroke-opacity:1" />
    <polygon
       points="-890.218,96.47 -870.94,102.93 -833.503,81.315 -848.736,72.521 "
       transform="translate(6.7861008,8.0711048)"
       id="polygon34"
       style="fill:#23952b;fill-opacity:1;stroke:#000000;stroke-width:4.02844191;stroke-miterlimit:4;stroke-dasharray:none;stroke-opacity:1" />
    <polygon
       points="-894.768,83.803 -877.785,89.292 -848.736,72.521 -861.982,64.873 "
       transform="translate(6.7861008,8.0711048)"
       id="polygon36"
       style="fill:#23952b;fill-opacity:1;stroke:#000000;stroke-width:4.02844191;stroke-miterlimit:4;stroke-dasharray:none;stroke-opacity:1" />
    <polygon
       points="-899.25,73.09 -884.321,77.77 -861.982,64.873 -873.5,58.223 "
       transform="translate(6.7861008,8.0711048)"
       id="polygon38"
       style="fill:#23952b;fill-opacity:1;stroke:#000000;stroke-width:4.02844191;stroke-miterlimit:4;stroke-dasharray:none;stroke-opacity:1" />
    <polygon
       points="-903.569,64.018 -890.47,68.021 -873.5,58.223 -883.516,52.441 "
       transform="translate(6.7861008,8.0711048)"
       id="polygon40"
       style="fill:#23952b;fill-opacity:1;stroke:#000000;stroke-width:4.02844191;stroke-miterlimit:4;stroke-dasharray:none;stroke-opacity:1" />
    <polygon
       points="-907.665,56.326 -896.192,59.759 -883.516,52.441 -892.225,47.412 "
       transform="translate(6.7861008,8.0711048)"
       id="polygon42"
       style="fill:#23952b;fill-opacity:1;stroke:#000000;stroke-width:4.02844191;stroke-miterlimit:4;stroke-dasharray:none;stroke-opacity:1" />
    <polygon
       points="-911.5,49.795 -901.465,52.747 -892.225,47.412 -899.799,43.04 "
       transform="translate(6.7861008,8.0711048)"
       id="polygon44"
       style="fill:#23952b;fill-opacity:1;stroke:#000000;stroke-width:4.02844191;stroke-miterlimit:4;stroke-dasharray:none;stroke-opacity:1" />
    <polygon
       points="-915.055,44.243 -906.29,46.787 -899.799,43.04 -906.384,39.237 "
       transform="translate(6.7861008,8.0711048)"
       id="polygon46"
       style="fill:#23952b;fill-opacity:1;stroke:#000000;stroke-width:4.02844191;stroke-miterlimit:4;stroke-dasharray:none;stroke-opacity:1" />
    <polygon
       points="-918.323,39.518 -910.677,41.716 -906.384,39.237 -912.111,35.931 "
       transform="translate(6.7861008,8.0711048)"
       id="polygon48"
       style="fill:#23952b;fill-opacity:1;stroke:#000000;stroke-width:4.02844191;stroke-miterlimit:4;stroke-dasharray:none;stroke-opacity:1" />
    <polygon
       points="-921.308,35.491 -914.644,37.394 -912.111,35.931 -917.091,33.056 "
       transform="translate(6.7861008,8.0711048)"
       id="polygon50"
       style="fill:#23952b;fill-opacity:1;stroke:#000000;stroke-width:4.02844191;stroke-miterlimit:4;stroke-dasharray:none;stroke-opacity:1" />
    <polygon
       points="-924.019,32.056 -918.217,33.706 -917.091,33.056 -921.421,30.556 "
       transform="translate(6.7861008,8.0711048)"
       id="polygon52"
       style="fill:#23952b;fill-opacity:1;stroke:#000000;stroke-width:4.02844191;stroke-miterlimit:4;stroke-dasharray:none;stroke-opacity:1" />
    <polygon
       points="-921.421,30.556 -921.421,30.556 "
       transform="translate(6.7861008,8.0711048)"
       id="polygon54"
       style="fill:#23952b;fill-opacity:1;stroke:#000000;stroke-width:4.02844191;stroke-miterlimit:4;stroke-dasharray:none;stroke-opacity:1" />
    <polygon
       points="-123.951,490.976 -123.951,487.976 0,562.539 "
       transform="translate(6.7861008,8.0711048)"
       id="polygon56"
       style="fill:#23952b;fill-opacity:1;stroke:#000000;stroke-width:4.02844191;stroke-miterlimit:4;stroke-dasharray:none;stroke-opacity:1" />
    <polygon
       points="-231.734,249.564 -123.951,490.976 -123.951,490.976 -231.734,428.747 "
       transform="translate(6.7861008,8.0711048)"
       id="polygon58"
       style="fill:#23952b;fill-opacity:1;stroke:#000000;stroke-width:4.02844191;stroke-miterlimit:4;stroke-dasharray:none;stroke-opacity:1" />
    <polygon
       points="-325.458,117.362 -231.734,252.564 -231.734,428.747 -325.458,374.635 "
       transform="translate(6.7861008,8.0711048)"
       id="polygon60"
       style="fill:#23952b;fill-opacity:1;stroke:#000000;stroke-width:4.02844191;stroke-miterlimit:4;stroke-dasharray:none;stroke-opacity:1" />
    <polygon
       points="-406.958,48.206 -325.458,120.932 -325.458,374.635 -406.958,327.581 "
       transform="translate(6.7861008,8.0711048)"
       id="polygon62"
       style="fill:#23952b;fill-opacity:1;stroke:#000000;stroke-width:4.02844191;stroke-miterlimit:4;stroke-dasharray:none;stroke-opacity:1" />
    <polygon
       points="-477.827,15.323 -406.958,52.454 -406.958,327.581 -477.827,286.665 "
       transform="translate(6.7861008,8.0711048)"
       id="polygon64"
       style="fill:#23952b;fill-opacity:1;stroke:#000000;stroke-width:4.02844191;stroke-miterlimit:4;stroke-dasharray:none;stroke-opacity:1" />
    <polygon
       points="-539.452,2.482 -477.827,20.378 -477.827,286.665 -539.452,251.086 "
       transform="translate(6.7861008,8.0711048)"
       id="polygon66"
       style="fill:#23952b;fill-opacity:1;stroke:#000000;stroke-width:4.02844191;stroke-miterlimit:4;stroke-dasharray:none;stroke-opacity:1" />
    <polygon
       points="-593.04,0 -539.452,8.498 -539.452,251.086 -593.04,220.147 "
       transform="translate(6.7861008,8.0711048)"
       id="polygon68"
       style="fill:#23952b;fill-opacity:1;stroke:#000000;stroke-width:4.02844191;stroke-miterlimit:4;stroke-dasharray:none;stroke-opacity:1" />
    <polygon
       points="-639.637,2.227 -593.04,7.159 -593.04,220.147 -639.637,193.244 "
       transform="translate(6.7861008,8.0711048)"
       id="polygon70"
       style="fill:#23952b;fill-opacity:1;stroke:#000000;stroke-width:4.02844191;stroke-miterlimit:4;stroke-dasharray:none;stroke-opacity:1" />
    <polygon
       points="-680.157,5.965 -639.637,10.746 -639.637,193.244 -680.157,169.85 "
       transform="translate(6.7861008,8.0711048)"
       id="polygon72"
       style="fill:#23952b;fill-opacity:1;stroke:#000000;stroke-width:4.02844191;stroke-miterlimit:4;stroke-dasharray:none;stroke-opacity:1" />
    <polygon
       points="-715.392,9.487 -680.157,16.103 -680.157,169.85 -715.392,149.507 "
       transform="translate(6.7861008,8.0711048)"
       id="polygon74"
       style="fill:#23952b;fill-opacity:1;stroke:#000000;stroke-width:4.02844191;stroke-miterlimit:4;stroke-dasharray:none;stroke-opacity:1" />
    <polygon
       points="-746.03,11.923 -715.392,21.551 -715.392,149.507 -746.03,131.818 "
       transform="translate(6.7861008,8.0711048)"
       id="polygon76"
       style="fill:#23952b;fill-opacity:1;stroke:#000000;stroke-width:4.02844191;stroke-miterlimit:4;stroke-dasharray:none;stroke-opacity:1" />
    <polygon
       points="-772.673,12.889 -746.03,26.279 -746.03,131.818 -772.673,116.436 "
       transform="translate(6.7861008,8.0711048)"
       id="polygon78"
       style="fill:#23952b;fill-opacity:1;stroke:#000000;stroke-width:4.02844191;stroke-miterlimit:4;stroke-dasharray:none;stroke-opacity:1" />
    <polygon
       points="-795.84,12.26 -772.673,29.974 -772.673,116.436 -795.84,103.06 "
       transform="translate(6.7861008,8.0711048)"
       id="polygon80"
       style="fill:#23952b;fill-opacity:1;stroke:#000000;stroke-width:4.02844191;stroke-miterlimit:4;stroke-dasharray:none;stroke-opacity:1" />
    <polygon
       points="-815.985,15.763 -795.84,32.59 -795.84,103.06 -815.985,91.429 "
       transform="translate(6.7861008,8.0711048)"
       id="polygon82"
       style="fill:#23952b;fill-opacity:1;stroke:#000000;stroke-width:4.02844191;stroke-miterlimit:4;stroke-dasharray:none;stroke-opacity:1" />
    <polygon
       points="-833.503,21.003 -815.985,36.093 -815.985,91.429 -833.503,81.315 "
       transform="translate(6.7861008,8.0711048)"
       id="polygon84"
       style="fill:#23952b;fill-opacity:1;stroke:#000000;stroke-width:4.02844191;stroke-miterlimit:4;stroke-dasharray:none;stroke-opacity:1" />
    <polygon
       points="-848.736,24.621 -833.503,38.087 -833.503,81.315 -848.736,72.521 "
       transform="translate(6.7861008,8.0711048)"
       id="polygon86"
       style="fill:#23952b;fill-opacity:1;stroke:#000000;stroke-width:4.02844191;stroke-miterlimit:4;stroke-dasharray:none;stroke-opacity:1" />
    <polygon
       points="-861.982,27.015 -848.736,38.978 -848.736,72.521 -861.982,64.873 "
       transform="translate(6.7861008,8.0711048)"
       id="polygon88"
       style="fill:#23952b;fill-opacity:1;stroke:#000000;stroke-width:4.02844191;stroke-miterlimit:4;stroke-dasharray:none;stroke-opacity:1" />
    <polygon
       points="-873.5,28.49 -861.982,39.079 -861.982,64.873 -873.5,58.223 "
       transform="translate(6.7861008,8.0711048)"
       id="polygon90"
       style="fill:#23952b;fill-opacity:1;stroke:#000000;stroke-width:4.02844191;stroke-miterlimit:4;stroke-dasharray:none;stroke-opacity:1" />
    <polygon
       points="-883.516,29.285 -873.5,38.628 -873.5,58.223 -883.516,52.441 "
       transform="translate(6.7861008,8.0711048)"
       id="polygon92"
       style="fill:#23952b;fill-opacity:1;stroke:#000000;stroke-width:4.02844191;stroke-miterlimit:4;stroke-dasharray:none;stroke-opacity:1" />
    <polygon
       points="-892.225,29.584 -883.516,37.804 -883.516,52.441 -892.225,47.412 "
       transform="translate(6.7861008,8.0711048)"
       id="polygon94"
       style="fill:#23952b;fill-opacity:1;stroke:#000000;stroke-width:4.02844191;stroke-miterlimit:4;stroke-dasharray:none;stroke-opacity:1" />
    <polygon
       points="-899.799,29.528 -892.225,36.743 -892.225,47.412 -899.799,43.04 "
       transform="translate(6.7861008,8.0711048)"
       id="polygon96"
       style="fill:#23952b;fill-opacity:1;stroke:#000000;stroke-width:4.02844191;stroke-miterlimit:4;stroke-dasharray:none;stroke-opacity:1" />
    <polygon
       points="-906.384,29.226 -899.799,35.544 -899.799,43.04 -906.384,39.237 "
       transform="translate(6.7861008,8.0711048)"
       id="polygon98"
       style="fill:#23952b;fill-opacity:1;stroke:#000000;stroke-width:4.02844191;stroke-miterlimit:4;stroke-dasharray:none;stroke-opacity:1" />
    <polygon
       points="-912.111,28.758 -906.384,34.281 -906.384,39.237 -912.111,35.931 "
       transform="translate(6.7861008,8.0711048)"
       id="polygon100"
       style="fill:#23952b;fill-opacity:1;stroke:#000000;stroke-width:4.02844191;stroke-miterlimit:4;stroke-dasharray:none;stroke-opacity:1" />
    <polygon
       points="-917.091,28.186 -912.111,33.006 -912.111,35.931 -917.091,33.056 "
       transform="translate(6.7861008,8.0711048)"
       id="polygon102"
       style="fill:#23952b;fill-opacity:1;stroke:#000000;stroke-width:4.02844191;stroke-miterlimit:4;stroke-dasharray:none;stroke-opacity:1" />
    <polygon
       points="-921.421,27.556 -917.091,31.756 -917.091,33.056 -921.421,30.556 "
       transform="translate(6.7861008,8.0711048)"
       id="polygon104"
       style="fill:#23952b;fill-opacity:1;stroke:#000000;stroke-width:4.02844191;stroke-miterlimit:4;stroke-dasharray:none;stroke-opacity:1" />
    <polygon
       points="-921.421,30.556 -921.421,30.556 "
       transform="translate(6.7861008,8.0711048)"
       id="polygon106"
       style="fill:#23952b;fill-opacity:1;stroke:#000000;stroke-width:4.02844191;stroke-miterlimit:4;stroke-dasharray:none;stroke-opacity:1" />
  </g>
</svg>
